<svg width="25" height="25" viewBox="0 0 25 25" fill="none" xmlns="http://www.w3.org/2000/svg">
<ellipse cx="12.3325" cy="17.6022" rx="6.95118" ry="6.95119" fill="#FFB4B4"/>
<path d="M9.71535 6.99644C10.701 10.6748 10.603 13.897 9.49648 14.1935C8.38999 14.4899 6.69402 11.7484 5.70842 8.0701C4.72282 4.39178 4.82081 1.16957 5.9273 0.873084C7.03378 0.576602 8.72975 3.31812 9.71535 6.99644Z" fill="#FFB4B4"/>
<path d="M8.55347 7.28925C9.05147 9.14781 9.04732 10.7637 8.54421 10.8986C8.0411 11.0334 7.22954 9.63599 6.73154 7.77744C6.23354 5.91889 6.23769 4.30295 6.7408 4.16814C7.24392 4.03333 8.05548 5.4307 8.55347 7.28925Z" fill="#D9D9D9"/>
<path d="M15.0133 6.99644C14.0277 10.6748 14.1257 13.897 15.2322 14.1935C16.3386 14.4899 18.0346 11.7484 19.0202 8.0701C20.0058 4.39178 19.9078 1.16957 18.8013 0.873084C17.6949 0.576602 15.9989 3.31812 15.0133 6.99644Z" fill="#FFB4B4"/>
<path d="M16.1752 7.28913C15.6772 9.14768 15.6813 10.7636 16.1844 10.8984C16.6875 11.0332 17.4991 9.63587 17.9971 7.77732C18.4951 5.91876 18.4909 4.30283 17.9878 4.16802C17.4847 4.03321 16.6732 5.43058 16.1752 7.28913Z" fill="#D9D9D9"/>
<rect x="2.46637" y="16.7905" width="0.784811" height="5.04521" rx="0.392406" transform="rotate(-75 2.46637 16.7905)" fill="#D9D9D9"/>
<rect x="2.63171" y="20.5354" width="0.784811" height="5.04521" rx="0.392406" transform="rotate(-101 2.63171 20.5354)" fill="#D9D9D9"/>
<rect x="4.57678" y="24.4431" width="0.784811" height="5.04521" rx="0.392406" transform="rotate(-132 4.57678 24.4431)" fill="#D9D9D9"/>
<rect width="0.784811" height="5.04521" rx="0.392406" transform="matrix(-0.258819 -0.965926 -0.965926 0.258819 22.2284 16.4543)" fill="#D9D9D9"/>
<rect width="0.784811" height="5.04521" rx="0.392406" transform="matrix(0.190809 -0.981627 -0.981627 -0.190809 22.063 20.199)" fill="#D9D9D9"/>
<rect width="0.784811" height="5.04521" rx="0.392406" transform="matrix(0.66913 -0.743145 -0.743144 -0.669131 20.118 24.1068)" fill="#D9D9D9"/>
<ellipse cx="12.4447" cy="17.8824" rx="0.392406" ry="0.784811" transform="rotate(90 12.4447 17.8824)" fill="black"/>
<ellipse cx="9.86605" cy="15.8083" rx="0.672695" ry="0.672696" fill="black"/>
<ellipse cx="14.7992" cy="15.6963" rx="0.672695" ry="0.672696" fill="black"/>
<path d="M15.5839 20.1809C15.5839 21.5164 14.2905 22.6475 12.5568 22.6475C10.823 22.6475 9.30542 21.5164 9.30542 20.1809C12.4447 20.1809 10.823 20.1809 12.5568 20.1809C14.2905 20.1809 12.4447 20.1809 15.5839 20.1809Z" fill="#EB8383"/>
<rect x="11.3235" y="20.0687" width="1.00904" height="1.23328" rx="0.504521" fill="#D9D9D9"/>
<rect x="12.5568" y="20.0687" width="1.00904" height="1.23328" rx="0.504521" fill="#D9D9D9"/>
</svg>
