<svg width="100" height="100" viewBox="0 0 100 100" fill="none" xmlns="http://www.w3.org/2000/svg">
<ellipse cx="49.3302" cy="70.4088" rx="27.8047" ry="27.8047" fill="#FFB4B4"/>
<path d="M38.8615 27.986C42.8039 42.6993 42.412 55.5881 37.986 56.774C33.5601 57.96 26.7762 46.9939 22.8338 32.2806C18.8914 17.5674 19.2834 4.67851 23.7093 3.49258C28.1352 2.30665 34.9191 13.2727 38.8615 27.986Z" fill="#FFB4B4"/>
<path d="M34.214 29.157C36.206 36.5912 36.1894 43.055 34.177 43.5942C32.1645 44.1335 28.9183 38.544 26.9263 31.1098C24.9343 23.6755 24.9509 17.2118 26.9633 16.6726C28.9758 16.1333 32.222 21.7228 34.214 29.157Z" fill="#D9D9D9"/>
<path d="M60.0531 27.986C56.1107 42.6993 56.5027 55.5881 60.9286 56.774C65.3546 57.96 72.1385 46.9939 76.0809 32.2806C80.0233 17.5674 79.6313 4.67851 75.2054 3.49258C70.7794 2.30665 63.9955 13.2727 60.0531 27.986Z" fill="#FFB4B4"/>
<path d="M64.7008 29.1568C62.7088 36.591 62.7254 43.0547 64.7378 43.594C66.7503 44.1332 69.9965 38.5437 71.9885 31.1095C73.9805 23.6753 73.9639 17.2115 71.9515 16.6723C69.939 16.1331 66.6928 21.7226 64.7008 29.1568Z" fill="#D9D9D9"/>
<rect x="9.86548" y="67.1624" width="3.13925" height="20.1808" rx="1.56962" transform="rotate(-75 9.86548 67.1624)" fill="#D9D9D9"/>
<rect x="10.5269" y="82.1416" width="3.13925" height="20.1808" rx="1.56962" transform="rotate(-101 10.5269 82.1416)" fill="#D9D9D9"/>
<rect x="18.307" y="97.7727" width="3.13924" height="20.1809" rx="1.56962" transform="rotate(-132 18.307 97.7727)" fill="#D9D9D9"/>
<rect width="3.13925" height="20.1809" rx="1.56962" transform="matrix(-0.258819 -0.965926 -0.965926 0.258819 88.9137 65.8171)" fill="#D9D9D9"/>
<rect width="3.13925" height="20.1809" rx="1.56962" transform="matrix(0.190809 -0.981627 -0.981627 -0.190809 88.2522 80.7961)" fill="#D9D9D9"/>
<rect width="3.13924" height="20.1809" rx="1.56962" transform="matrix(0.66913 -0.743145 -0.743144 -0.669131 80.4722 96.4272)" fill="#D9D9D9"/>
<ellipse cx="49.7787" cy="71.5298" rx="1.56962" ry="3.13924" transform="rotate(90 49.7787 71.5298)" fill="black"/>
<ellipse cx="39.4641" cy="63.2333" rx="2.69078" ry="2.69078" fill="black"/>
<ellipse cx="59.1965" cy="62.785" rx="2.69078" ry="2.69078" fill="black"/>
<path d="M62.3356 80.7234C62.3356 86.0655 57.1621 90.5896 50.2271 90.5896C43.2921 90.5896 37.2217 86.0655 37.2217 80.7234C49.7787 80.7234 43.2921 80.7234 50.2271 80.7234C57.1621 80.7234 49.7787 80.7234 62.3356 80.7234Z" fill="#EB8383"/>
<rect x="45.2941" y="80.2749" width="4.03617" height="4.9331" rx="1" fill="#D9D9D9"/>
<rect x="50.2272" y="80.2749" width="4.03617" height="4.9331" rx="1" fill="#D9D9D9"/>
</svg>
